<svg id="Layer_1" data-name="Layer 1" xmlns="http://www.w3.org/2000/svg" viewBox="0 0 667.77 171.3"><defs><style>.cls-1{fill:#fff;}.cls-2{fill:#282828;}.cls-3{fill:#232323;}</style></defs><rect class="cls-1" x="71.55" y="80.7" width="1.41" height="1.41"/><path class="cls-1" d="M219.06,101.15c.86,17,13.18,24.64,28.45,24.64,13.54,0,22.21-5.38,22.21-14.58,0-8.33-6.59-11.45-18-13.71l-20.82-3.82c-17-3.12-28.81-12.49-28.81-30.53,0-20.48,16.14-33.67,41.65-33.67,28.63,0,44.76,14.75,45.11,39.05l-19.95.69c-.7-14.92-10.41-22.73-25.34-22.73-12.84,0-20.12,5.72-20.12,15.09,0,8,5.72,10.76,15.61,12.67l20.13,3.65c21.52,4,31.58,14.22,31.58,31.92,0,21.52-18.57,33.14-43.21,33.14C219.4,143,199.1,128.39,199.1,102Z"/><path class="cls-1" d="M307.9,78.94H297V66.62l5.2-.87.22,0a9,9,0,0,0,7.66-8.79l.45-10.12,18.05-3.61V64.36h14l5.74,14.58H328.55v31.33c-.07,2.93.12-1.1,0,0h0s-22.23.53-20.65.62Z"/><path class="cls-1" d="M396.48,118l20.73-53.62h20.3l-30.19,76.52h-22.9L354.23,64.36h21.86Z"/><path class="cls-1" d="M542.14,62.28c20.65,0,27.25,14.23,27.25,30.88v47.72H548.56V97.33c0-11.8-3.64-18.57-13.88-18.57-10.06,0-16.13,8.33-16.13,21.17v40.95H497.72V97.33c0-11.8-3.81-18.57-13.88-18.57s-16.13,8.33-16.13,21.17v40.95H446.88V64.36h20.83V76.85c3.81-8.67,12.49-14.57,24.12-14.57,13.53,0,21.16,6.42,24.46,15.79C520.46,69.05,529.65,62.28,542.14,62.28Z"/><path class="cls-1" d="M606.87,126.31v43H586.05v-105h20.82V79.11c3.47-9.37,12.66-16.83,26.37-16.83,22.56,0,34.53,17.87,34.53,40.43S655.8,143,633.24,143c-13.71,0-22.9-7.46-26.37-16.65Zm-.18-22.21c0,14.05,8.33,22.55,20.13,22.55,13.19,0,20-9.54,20-23.94,0-14.58-6.77-24.12-20-24.12-11.8,0-20.13,8.67-20.13,22.56Z"/><path class="cls-1" d="M340.63,140.88H317.1a30.41,30.41,0,0,1-7-9.44q-2.67-5.53-2.67-16.57l.4-10.72,20.74.93c0,8,1.37,21.2,3.68,25.12a34.93,34.93,0,0,0,8.4,9.81Z"/><rect class="cls-1" width="156.4" height="171.3" rx="5.6"/><path class="cls-2" d="M78.22,28.36h28.34c8.76.2,5.44,11,6,16.74,0,3.73,2.32,6.12,6.06,6.16,18.05-.3,17.19-.74,16.84,17.29-.54,8.5-11.46,4.93-17.12,5.64-8.56-.38-5.23-11-5.85-16.73,0-3.81-2.36-6.17-6.24-6.18q-12.3,0-24.6,0H50.18c-3.15,0-5.28,1.47-6.1,4.15-.57,4.21-.08,8.55-.23,12.81a5.7,5.7,0,0,0,5.69,5.93c19,0,38.06,0,57.09,0,8.63.24,5.39,10.92,6,16.61,0,9.08,11.09,5.7,17,6.31,8.8.3,5.29,11.47,5.91,17.24-.53,8.35-10.91,5-16.5,5.68-13.71,0,.82,22.43-12.48,22.91H49.82c-8.81-.22-5.41-11.15-6-16.94a5.67,5.67,0,0,0-5.76-6c-18.13.1-17.45,1.28-17.15-17.2.49-8.57,11.35-5,17-5.74C51,97.78,36.61,119.89,50.19,120c18.67,0,37.34,0,56,0a6,6,0,0,0,6.36-6.41c-.73-5.72,2.68-16.35-6.11-16.51-18.94,0-37.87,0-56.8,0-8.63-.4-5.23-11.19-5.87-16.91-.29-8.81-11.29-5.37-17.09-6C18,73.78,21.54,62.78,20.87,57a5.7,5.7,0,0,1,5.84-5.77c5.85-.57,17.23,2.63,17.1-6.32.38-5.71-2.58-16.36,6-16.59Z"/><path class="cls-3" d="M125.27,34.5c0-3.21,1.94-5,4.86-5s4.83,1.8,4.83,5-1.93,5.08-4.85,5.08S125.27,37.76,125.27,34.5Zm8.78,0c0-2.83-1.62-4.23-3.92-4.23s-4,1.38-4,4.23,1.7,4.24,4,4.24S134.05,37.42,134.05,34.53Zm-6.14-2.87h2.52c1.38,0,2.17.59,2.17,1.78a1.67,1.67,0,0,1-1.24,1.72.75.75,0,0,1,.56.39l1,1.86H131l-.87-2h-.62v2h-1.6Zm1.6,1.22v1.39h.61c.55,0,.87-.17.87-.74s-.36-.65-.76-.65Z"/></svg>