<svg id="Layer_1" data-name="Layer 1" xmlns="http://www.w3.org/2000/svg" viewBox="0 0 468.67 171.3"><defs><style>.cls-1{fill:#232323;}</style></defs><path class="cls-1" d="M20,101.15c.87,17,13.19,24.64,28.46,24.64,13.54,0,22.21-5.38,22.21-14.58,0-8.33-6.59-11.45-18-13.71L31.75,93.68C14.75,90.56,3,81.19,3,63.15,3,42.67,19.09,29.48,44.59,29.48c28.63,0,44.77,14.75,45.12,39.05l-20,.69C69.06,54.3,59.34,46.49,44.42,46.49c-12.84,0-20.13,5.72-20.13,15.09,0,8,5.73,10.76,15.62,12.67L60,77.9c21.51,4,31.58,14.22,31.58,31.92,0,21.52-18.57,33.14-43.21,33.14C20.3,143,0,128.39,0,102Z"/><path class="cls-1" d="M108.8,78.94H97.86V66.62l5.21-.87.22,0A9,9,0,0,0,111,56.92l.44-10.12,18-3.61V64.36h14l5.73,14.58H129.44v31.33c-.06,2.93.13-1.1,0,0h0s-22.23.53-20.64.62Z"/><path class="cls-1" d="M197.37,118l20.74-53.62h20.3l-30.19,76.52h-22.9l-30.2-76.52H177Z"/><path class="cls-1" d="M343,62.28c20.65,0,27.24,14.23,27.24,30.88v47.72H349.46V97.33c0-11.8-3.64-18.57-13.88-18.57-10.06,0-16.14,8.33-16.14,21.17v40.95H298.62V97.33c0-11.8-3.82-18.57-13.88-18.57S268.6,87.09,268.6,99.93v40.95H247.78V64.36H268.6V76.85c3.82-8.67,12.5-14.57,24.12-14.57,13.54,0,21.17,6.42,24.47,15.79C321.35,69.05,330.55,62.28,343,62.28Z"/><path class="cls-1" d="M407.76,126.31v43H386.94v-105h20.82V79.11c3.47-9.37,12.67-16.83,26.38-16.83,22.56,0,34.53,17.87,34.53,40.43S456.7,143,434.14,143c-13.71,0-22.91-7.46-26.38-16.65Zm-.17-22.21c0,14.05,8.33,22.55,20.13,22.55,13.19,0,19.95-9.54,19.95-23.94,0-14.58-6.76-24.12-19.95-24.12-11.8,0-20.13,8.67-20.13,22.56Z"/><path class="cls-1" d="M141.52,140.88H118a30.41,30.41,0,0,1-7-9.44q-2.67-5.53-2.67-16.57l.4-10.72,20.73.93c0,8,1.38,21.2,3.68,25.12a35.25,35.25,0,0,0,8.4,9.81Z"/></svg>