<svg id="Layer_1" data-name="Layer 1" xmlns="http://www.w3.org/2000/svg" viewBox="0 0 714.96 171.3"><defs><style>.cls-1{fill:#fff;}.cls-2{fill:#7444ff;stroke:#b7b7b7;stroke-miterlimit:10;}</style></defs><rect class="cls-1" x="72.19" y="80.7" width="1.41" height="1.41"/><path d="M223.39,93.09c1,18.63,14.45,27,31.17,27,14.83,0,24.34-5.9,24.34-16,0-9.13-7.23-12.55-19.77-15l-22.81-4.18c-18.63-3.42-31.56-13.69-31.56-33.46,0-22.43,17.68-36.87,45.62-36.87,31.37,0,49.05,16.15,49.43,42.77L278,58.12c-.76-16.35-11.41-24.9-27.76-24.9-14.06,0-22.05,6.27-22.05,16.53,0,8.75,6.28,11.79,17.11,13.88l22.05,4c23.57,4.37,34.6,15.59,34.6,35,0,23.57-20.34,36.31-47.34,36.31-30.79,0-53-16-53-44.87Z"/><path d="M320.72,68.76h-12V55.27l5.7-1,.25,0a9.91,9.91,0,0,0,8.38-9.64l.49-11.08,19.78-4V52.79h15.33l6.28,16H343.34v34.32c-.07,3.22.14-1.19,0,0h0s-24.36.59-22.62.68Z"/><path d="M417.76,111.54l22.71-58.75h22.24l-33.07,83.83H404.55L371.47,52.79h23.95Z"/><path d="M577.34,50.51c22.62,0,29.84,15.59,29.84,33.84v52.27H584.37V88.91c0-12.92-4-20.34-15.21-20.34-11,0-17.67,9.13-17.67,23.19v44.86H528.68V88.91c0-12.92-4.19-20.34-15.21-20.34s-17.68,9.13-17.68,23.19v44.86H473V52.79h22.81V66.48c4.18-9.5,13.69-16,26.42-16,14.83,0,23.19,7,26.81,17.3C553.58,57.93,563.65,50.51,577.34,50.51Z"/><path d="M648.24,167.8H625.43v-115h22.81V69c3.81-10.26,13.88-18.44,28.9-18.44C701.85,50.51,715,70.09,715,94.8s-13.11,44.11-37.82,44.11c-15,0-25.09-8.18-28.9-18.25Zm-.19-71.47c0,15.39,9.13,24.71,22.05,24.71C684.55,121,692,110.58,692,94.8c0-16-7.41-26.42-21.86-26.42-12.92,0-22.05,9.51-22.05,24.71Z"/><path d="M356.57,136.62H330.8a33.16,33.16,0,0,1-7.69-10.34q-2.92-6.06-2.92-18.15l.43-11.74,22.72,1c0,8.7,1.5,23.21,4,27.51a38.28,38.28,0,0,0,9.2,10.75Z"/><rect class="cls-2" width="156.4" height="171.3" rx="5.6"/><path class="cls-1" d="M77.3,28.27h28.34c8.76.2,5.44,11,6,16.74,0,3.73,2.32,6.12,6.06,6.16,18-.3,17.19-.74,16.84,17.29-.54,8.5-11.45,4.92-17.12,5.64-8.56-.38-5.23-11-5.85-16.73,0-3.81-2.36-6.17-6.24-6.18q-12.3,0-24.6,0H49.27c-3.16,0-5.29,1.47-6.11,4.14-.56,4.22-.08,8.56-.23,12.82a5.7,5.7,0,0,0,5.69,5.93c19,0,38.06,0,57.1,0,8.62.24,5.38,10.92,6,16.61,0,9.08,11.09,5.7,17,6.31,8.8.3,5.29,11.47,5.91,17.24-.53,8.35-10.91,5-16.49,5.68-13.72,0,.81,22.43-12.49,22.91H48.9c-8.81-.22-5.41-11.15-6-16.94a5.67,5.67,0,0,0-5.76-6c-18.13.1-17.45,1.28-17.15-17.2.49-8.57,11.35-5.05,17-5.74,13.08.67-1.29,22.78,12.3,22.91,18.66,0,37.33,0,56,0a6,6,0,0,0,6.36-6.41c-.73-5.72,2.68-16.35-6.11-16.51-18.94,0-37.87,0-56.8,0-8.63-.4-5.23-11.19-5.87-16.91-.29-8.81-11.29-5.37-17.09-6C17.1,73.69,20.62,62.68,20,57a5.7,5.7,0,0,1,5.84-5.77c5.85-.57,17.23,2.63,17.1-6.32.38-5.71-2.58-16.36,6-16.59Z"/><path class="cls-1" d="M124.35,34.5c0-3.21,1.94-5,4.86-5s4.83,1.8,4.83,5-1.93,5.08-4.85,5.08S124.35,37.76,124.35,34.5Zm8.79,0c0-2.83-1.63-4.23-3.93-4.23s-4,1.38-4,4.23,1.7,4.24,3.95,4.24S133.14,37.42,133.14,34.53ZM127,31.66h2.52c1.38,0,2.17.59,2.17,1.78a1.67,1.67,0,0,1-1.24,1.72.72.72,0,0,1,.56.39l1,1.86h-1.89l-.87-2h-.62v2H127Zm1.61,1.22v1.39h.6c.55,0,.87-.17.87-.74s-.36-.65-.76-.65Z"/></svg>