<svg id="Layer_1" data-name="Layer 1" xmlns="http://www.w3.org/2000/svg" viewBox="0 0 157.66 171.3"><defs><style>.cls-1{fill:#fff;}.cls-2{fill:#161616;}</style></defs><rect class="cls-1" x="72.19" y="80.7" width="1.41" height="1.41"/><rect class="cls-1" x="0.63" width="156.4" height="171.3" rx="5.6"/><path class="cls-2" d="M78.85,28.36h28.34c8.76.2,5.44,11,6,16.74,0,3.73,2.32,6.12,6.06,6.16,18-.3,17.19-.74,16.84,17.29-.54,8.5-11.46,4.93-17.12,5.64-8.56-.38-5.23-11-5.85-16.73,0-3.81-2.36-6.17-6.24-6.18q-12.3,0-24.6,0H50.81c-3.15,0-5.28,1.47-6.1,4.15-.57,4.21-.08,8.55-.23,12.81a5.7,5.7,0,0,0,5.69,5.93c19,0,38.06,0,57.09,0,8.63.24,5.39,10.92,6,16.61,0,9.08,11.09,5.7,17,6.31,8.8.3,5.29,11.47,5.91,17.24-.53,8.35-10.91,5-16.49,5.68-13.72,0,.81,22.43-12.49,22.91H50.45c-8.81-.22-5.41-11.15-6-16.94a5.67,5.67,0,0,0-5.76-6c-18.13.1-17.45,1.28-17.15-17.2.49-8.57,11.35-5,17-5.74,13.08.67-1.29,22.78,12.29,22.91,18.67,0,37.34,0,56,0a6,6,0,0,0,6.36-6.41c-.73-5.72,2.68-16.35-6.11-16.51-18.94,0-37.87,0-56.8,0-8.63-.4-5.23-11.19-5.87-16.91-.29-8.81-11.29-5.37-17.09-6C18.65,73.78,22.17,62.78,21.5,57a5.7,5.7,0,0,1,5.84-5.77c5.85-.57,17.23,2.63,17.1-6.32.38-5.71-2.58-16.36,6-16.59Z"/><path class="cls-2" d="M125.9,34.5c0-3.21,1.94-5,4.86-5s4.83,1.8,4.83,5-1.93,5.08-4.85,5.08S125.9,37.76,125.9,34.5Zm8.78,0c0-2.83-1.62-4.23-3.92-4.23s-4,1.38-4,4.23,1.7,4.24,4,4.24S134.68,37.42,134.68,34.53Zm-6.14-2.87h2.52c1.38,0,2.17.59,2.17,1.78A1.67,1.67,0,0,1,132,35.16a.75.75,0,0,1,.56.39l1,1.86h-1.89l-.87-2h-.62v2h-1.6Zm1.6,1.22v1.39h.61c.55,0,.87-.17.87-.74s-.36-.65-.76-.65Z"/></svg>