<svg id="Layer_1" data-name="Layer 1" xmlns="http://www.w3.org/2000/svg" viewBox="0 0 677.73 171.3"><defs><style>.cls-1{fill:#fff;}.cls-2{fill:#4918fb;}.cls-3{fill:#0a0a0a;}</style></defs><rect class="cls-1" x="72.66" y="81" width="1" height="1"/><rect class="cls-2" x="2.47" y="2.5" width="151.45" height="166.3" rx="4.05"/><path class="cls-2" d="M149.88,4a2.54,2.54,0,0,1,2.54,2.54V164.76a2.54,2.54,0,0,1-2.54,2.54H6.52A2.55,2.55,0,0,1,4,164.76V6.54A2.55,2.55,0,0,1,6.52,4H149.88m0-3H6.52A5.54,5.54,0,0,0,1,6.54V164.76a5.54,5.54,0,0,0,5.55,5.54H149.88a5.54,5.54,0,0,0,5.54-5.54V6.54A5.54,5.54,0,0,0,149.88,1Z"/><path class="cls-1" d="M78.22,28h28.34c8.76.2,5.44,11,6,16.74,0,3.73,2.32,6.12,6.06,6.16,18.05-.3,17.19-.74,16.84,17.29-.54,8.5-11.46,4.92-17.12,5.64-8.56-.38-5.23-11-5.85-16.73,0-3.82-2.36-6.17-6.24-6.18q-12.3,0-24.6,0H50.18c-3.15,0-5.28,1.47-6.1,4.14-.57,4.22-.08,8.56-.23,12.82a5.7,5.7,0,0,0,5.69,5.93c19,0,38.06,0,57.09,0,8.63.24,5.39,10.92,6,16.61,0,9.08,11.09,5.7,17,6.31,8.8.3,5.29,11.47,5.91,17.24-.53,8.35-10.91,5-16.5,5.68-13.71,0,.82,22.43-12.48,22.91H49.82c-8.81-.22-5.41-11.15-6-16.94a5.67,5.67,0,0,0-5.76-6c-18.13.1-17.45,1.28-17.15-17.21.49-8.56,11.35-5,17-5.73,13.08.67-1.29,22.78,12.29,22.91,18.67,0,37.34,0,56,0a6,6,0,0,0,6.36-6.41c-.73-5.72,2.68-16.35-6.11-16.51-18.94,0-37.87,0-56.8,0-8.63-.4-5.23-11.19-5.87-16.91-.29-8.81-11.29-5.37-17.09-6-8.67-.41-5.15-11.42-5.82-17.15a5.7,5.7,0,0,1,5.84-5.77c5.85-.57,17.23,2.63,17.1-6.32.38-5.71-2.58-16.37,6-16.59Z"/><path class="cls-3" d="M218.82,98.18c.89,17.39,13.49,25.2,29.1,25.2,13.84,0,22.72-5.5,22.72-14.91,0-8.51-6.75-11.71-18.46-14l-21.29-3.9c-17.39-3.19-29.46-12.78-29.46-31.23,0-20.94,16.5-34.43,42.59-34.43,29.28,0,45.78,15.08,46.14,39.93l-20.41.71C269,50.27,259.1,42.28,243.84,42.28c-13.13,0-20.58,5.86-20.58,15.44,0,8.16,5.85,11,16,13l20.58,3.72c22,4.08,32.3,14.55,32.3,32.65,0,22-19,33.9-44.19,33.9-28.75,0-49.51-14.91-49.51-41.88Z"/><path class="cls-3" d="M309.66,76h-11V63.4l5.28-.89.22,0a9.21,9.21,0,0,0,7.76-9l.45-10.35,18.29-3.69V61H344.9l5.83,15H330.66v32.24c-.06,3,.13-1.12,0,0h0s-22.61.55-21,.64Z"/><path class="cls-3" d="M400.27,115.65,421.41,61H442.1l-30.77,78H388L357.2,61h22.29Z"/><path class="cls-3" d="M548.8,58.87c21.12,0,27.86,14.51,27.86,31.49V139h-21V94.45c0-12.06-3.76-19-14.33-19-10.4,0-16.67,8.51-16.67,21.65V139h-21V94.45c0-12.06-3.94-19-14.33-19S472.66,84,472.66,97.12V139h-21V61h21V73.73c8.53-20.37,43.41-19.8,49.7,1.24C526.62,65.77,536,58.87,548.8,58.87Z"/><path class="cls-3" d="M615.66,168h-21V61h21V76c3.5-9.55,12.78-17.16,26.6-17.16,22.75,0,34.83,18.22,34.83,41.21s-12.08,41-34.83,41c-13.82,0-23.1-7.6-26.6-17Zm0-66.8c0,14.37,8.52,23.07,20.59,23.07,13.49,0,20.41-9.76,20.41-24.49,0-14.91-6.92-24.67-20.41-24.67S614.68,86.23,615.66,101.2Z"/><path class="cls-3" d="M342.66,139H318.6c-7.78-7.45-9.86-13.91-9.91-26.61l.41-11,21.21,1c0,8.12,1.4,21.67,3.76,25.68a35.76,35.76,0,0,0,8.59,10Z"/><path class="cls-1" d="M124.35,34.5c0-3.21,1.94-5,4.86-5s4.83,1.8,4.83,5-1.93,5.08-4.85,5.08S124.35,37.76,124.35,34.5Zm8.79,0c0-2.83-1.63-4.23-3.93-4.23s-4,1.38-4,4.23,1.7,4.24,3.95,4.24S133.14,37.42,133.14,34.53ZM127,31.66h2.52c1.38,0,2.17.59,2.17,1.78a1.67,1.67,0,0,1-1.24,1.72.72.72,0,0,1,.56.39l1,1.86h-1.89l-.87-2h-.62v2H127Zm1.61,1.22v1.39h.6c.55,0,.87-.17.87-.74s-.36-.65-.76-.65Z"/></svg>