<svg id="Layer_1" data-name="Layer 1" xmlns="http://www.w3.org/2000/svg" viewBox="0 0 156.16 171.3"><defs><style>.cls-1{fill:#fff;}.cls-2{fill:#5417fc;stroke:#a5a5a5;stroke-miterlimit:10;stroke-width:0.5px;}</style></defs><rect class="cls-1" x="72.66" y="81" width="1" height="1"/><path class="cls-2" d="M150.56,171.5H5.76a5.6,5.6,0,0,1-5.6-5.6V6.1A5.6,5.6,0,0,1,5.76.5h144.8a5.6,5.6,0,0,1,5.6,5.6V165.9a5.6,5.6,0,0,1-5.6,5.6"/><path class="cls-1" d="M78.22,28h28.34c8.76.2,5.44,11,6,16.74,0,3.73,2.32,6.12,6.06,6.16,18-.3,17.19-.74,16.84,17.29-.54,8.5-11.46,4.92-17.12,5.64-8.56-.38-5.23-11-5.85-16.73,0-3.82-2.36-6.17-6.24-6.18H50.18c-3.15,0-5.28,1.47-6.1,4.14-.57,4.22-.08,8.56-.23,12.82a5.7,5.7,0,0,0,5.47,5.93h57.31c8.63.24,5.39,10.92,6,16.61,0,9.08,11.09,5.7,17,6.31,8.8.3,5.29,11.47,5.91,17.24-.53,8.35-10.91,5-16.5,5.68-13.71,0,.82,22.43-12.48,22.91H49.82c-8.81-.22-5.41-11.15-6-16.94a5.66,5.66,0,0,0-5.33-6h-.43c-18.13.1-17.45,1.28-17.15-17.21.49-8.56,11.35-5,17-5.73,13.08.67-1.29,22.78,12.29,22.91h56a6,6,0,0,0,6.36-5.61,5.34,5.34,0,0,0,0-.8c-.73-5.72,2.68-16.35-6.11-16.51H49.65c-8.63-.4-5.23-11.19-5.87-16.91-.29-8.81-11.29-5.37-17.09-6-8.67-.41-5.15-11.42-5.82-17.15a5.7,5.7,0,0,1,5.63-5.77h.21c5.85-.57,17.23,2.63,17.1-6.32.38-5.71-2.58-16.37,6-16.59Z"/><path class="cls-1" d="M124.35,34.5c0-3.21,1.94-5,4.86-5s4.83,1.8,4.83,5-1.93,5.08-4.85,5.08S124.35,37.76,124.35,34.5Zm8.79,0c0-2.83-1.63-4.23-3.93-4.23s-4,1.38-4,4.23,1.7,4.24,4,4.24,4-1.32,4-4.21ZM127,31.66h2.52c1.38,0,2.17.59,2.17,1.78a1.67,1.67,0,0,1-1.24,1.72.72.72,0,0,1,.56.39l1,1.86h-1.89l-.87-2h-.62v2H127Zm1.61,1.22v1.39h.6c.55,0,.87-.17.87-.74s-.36-.65-.76-.65Z"/></svg>